HIERARCHY
ROOT Hips
{
     OFFSET 1.88212 96.90440 -13.34250
     CHANNELS 6 Xposition Yposition Zposition Zrotation Xrotation Yrotation
     JOINT Spine
     {
          OFFSET 0.00000 11.89050 0.00000
          CHANNELS 3 Zrotation Xrotation Yrotation
          JOINT Spine1
          {
               OFFSET -0.00000 25.65740 0.12766
               CHANNELS 3 Zrotation Xrotation Yrotation
               JOINT HEad
               {
                    OFFSET 0.00000 8.73416 0.01134
                    CHANNELS 3 Zrotation Xrotation Yrotation
                    End Site
                    {
                         OFFSET -0.29000 12.77420 2.51395
                    }
               }
               JOINT LeftShoulder1
               {
                    OFFSET 8.99000 -0.36225 -0.22000
                    CHANNELS 3 Zrotation Xrotation Yrotation
                    JOINT LeftArm
                    {
                         OFFSET 10.28270 -0.00338 0.32212
                         CHANNELS 3 Zrotation Xrotation Yrotation
                         JOINT LeftForeArm
                         {
                              OFFSET 32.76690 0.09914 -1.42434
                              CHANNELS 3 Zrotation Xrotation Yrotation
                              JOINT LeftHand
                              {
                                   OFFSET 27.56430 0.08536 1.02216
                                   CHANNELS 3 Zrotation Xrotation Yrotation
                                   End Site
                                   {
                                        OFFSET 16.74430 -0.60000 1.50291
                                   }
                              }
                         }
                    }
               }
               JOINT RightShoulder
               {
                    OFFSET -8.99000 -0.36225 -0.22000
                    CHANNELS 3 Zrotation Xrotation Yrotation
                    JOINT RightArm
                    {
                         OFFSET -10.28270 -0.00338 0.32212
                         CHANNELS 3 Zrotation Xrotation Yrotation
                         JOINT RightForeArm
                         {
                              OFFSET -32.89710 0.09914 -1.42434
                              CHANNELS 3 Zrotation Xrotation Yrotation
                              JOINT RightHand
                              {
                                   OFFSET -27.49210 0.08536 1.02216
                                   CHANNELS 3 Zrotation Xrotation Yrotation
                                   End Site
                                   {
                                        OFFSET -16.63120 -0.60000 1.50291
                                   }
                              }
                         }
                    }
               }
          }
     }
     JOINT LeftUpLeg
     {
          OFFSET 8.94580 -8.66707 0.10165
          CHANNELS 3 Zrotation Xrotation Yrotation
          JOINT LeftLeg
          {
               OFFSET 0.00000 -44.42270 1.37270
               CHANNELS 3 Zrotation Xrotation Yrotation
               JOINT LeftFoot
               {
                    OFFSET -0.25355 -42.09240 -1.46059
                    CHANNELS 3 Zrotation Xrotation Yrotation
                    JOINT LeftToes
                    {
                         OFFSET -0.04000 -4.41509 8.49910
                         CHANNELS 3 Zrotation Xrotation Yrotation
                         End Site
                         {
                              OFFSET 0.08000 -0.04745 9.77979
                         }
                    }
               }
          }
     }
     JOINT RightUpLeg
     {
          OFFSET -8.94580 -8.66707 0.10165
          CHANNELS 3 Zrotation Xrotation Yrotation
          JOINT RightLeg
          {
               OFFSET 0.00000 -44.42270 1.37270
               CHANNELS 3 Zrotation Xrotation Yrotation
               JOINT RightFoot
               {
                    OFFSET 0.25355 -42.09240 -1.46059
                    CHANNELS 3 Zrotation Xrotation Yrotation
                    JOINT RightToes
                    {
                         OFFSET 0.04000 -4.41509 8.49910
                         CHANNELS 3 Zrotation Xrotation Yrotation
                         End Site
                         {
                              OFFSET -0.08000 -0.13745 9.77979
                         }
                    }
               }
          }
     }
}
MOTION
Frames: 6
Frame Time: 0.01667
136.38472 87.06090 -275.16034 -14.93479 -14.86440 -51.61569 3.29164 21.13556 -0.46198 -0.01321 0.02057 -0.00993 -6.09535 17.03398 -0.24496 -3.99774 12.52022 -1.40071 -98.49411 -62.27585 -74.98803 -25.89069 47.35187 -83.81500 15.70658 7.33415 -10.71105 13.10411 12.37689 -3.51703 92.18642 -0.36689 68.36935 3.90341 36.85621 108.40767 22.33932 8.86898 4.00678 20.98904 -7.83685 -28.76416 -16.05528 11.59854 64.95934 -19.40448 -0.02065 0.03837 11.71277 11.62557 -36.58211 -38.08168 18.12719 14.13917 41.52876 19.33430 -42.43548 -6.65408 0.01745 0.03224 3.90142 -58.95404 39.62191 
136.27794 86.18016 -273.83911 -15.73034 -14.95466 -51.71941 5.32986 21.25874 -0.77821 -0.01263 0.01809 -0.01005 -6.08827 16.99669 -1.76093 -4.07426 12.67299 -2.32661 -98.80515 -63.40623 -75.49303 -26.45098 47.14244 -83.14527 15.55399 7.15802 -11.03550 12.38152 12.31981 -4.34009 91.56967 0.06519 68.33878 4.35439 36.57878 107.92599 21.86584 9.01473 4.12000 21.03285 -8.96146 -31.41721 -15.29439 13.51265 64.45103 -22.62982 -0.09887 0.03416 11.78397 13.08037 -33.31513 -38.45251 17.80858 14.63021 42.68224 21.75088 -43.72230 -4.21206 0.01520 0.03204 3.02397 -61.22398 40.71382 
136.15114 85.34563 -272.43121 -16.43466 -14.84009 -51.86956 7.23963 21.34526 -1.11626 -0.01207 0.01573 -0.01012 -6.00826 16.80945 -2.80000 -4.10211 12.62604 -3.09342 -99.39392 -64.60114 -76.27779 -27.30343 47.13399 -82.38897 15.57112 6.72249 -11.47984 11.77129 12.11882 -5.02055 90.81636 0.54039 68.32103 4.92985 36.20235 107.41715 21.03494 9.32239 4.42182 20.95477 -10.11230 -33.80033 -14.95347 15.51499 64.83128 -23.95378 -0.04390 0.01598 10.30620 13.73270 -31.12779 -38.54522 17.33437 15.01015 43.63227 24.16288 -44.83728 -1.71185 0.01396 0.03056 1.91983 -63.32825 41.41277 
136.01477 84.57401 -270.95486 -17.04737 -14.55709 -52.07185 8.99693 21.39652 -1.45262 -0.01156 0.01361 -0.01010 -5.86574 16.52053 -3.39516 -4.11508 12.43407 -3.70188 -100.22263 -65.82642 -77.30069 -28.29652 47.28892 -81.63042 15.54315 6.71616 -11.66434 11.25358 11.81782 -5.56810 90.01256 1.03598 68.30895 5.57006 35.78073 106.92642 20.60704 9.52474 4.45011 20.82113 -11.27918 -35.90578 -14.80422 17.53343 65.76450 -25.96967 -0.04319 0.00933 9.88412 14.09631 -29.80568 -38.42878 16.74545 15.30861 44.32727 26.51274 -45.74657 0.83774 0.01309 0.02746 0.66669 -65.27638 41.83987 
135.88142 83.87404 -269.43381 -17.56666 -14.13581 -52.32666 10.58194 21.41494 -1.77077 -0.01115 0.01181 -0.00996 -5.66955 16.16889 -3.58379 -4.13212 12.14510 -4.15889 -101.27584 -67.05674 -78.54051 -29.34580 47.56905 -80.91690 15.63584 6.49053 -11.92143 10.80177 11.45725 -5.98769 89.22103 1.52508 68.30118 6.22457 35.34094 106.49499 20.01129 9.83071 4.56182 20.67358 -12.44037 -37.73031 -14.75855 19.54513 67.02229 -27.38795 -0.03074 0.00557 9.22520 14.30986 -29.09113 -38.14773 16.07694 15.54660 44.72905 28.73914 -46.41793 3.40337 0.01193 0.02288 -0.71081 -66.95158 41.98331 
135.76631 83.25614 -267.90100 -17.98750 -13.59976 -52.62457 11.97896 21.40174 -2.06365 -0.01089 0.01038 -0.00965 -5.42675 15.78243 -3.40740 -4.16253 11.79681 -4.47830 -102.55424 -68.26744 -79.99405 -30.39731 47.94477 -80.26569 15.70546 6.47127 -12.02985 10.39498 11.06932 -6.28248 88.48340 1.98678 68.29852 6.84200 34.90519 106.14847 19.68353 10.07810 4.49816 20.51294 -13.52429 -39.28456 -14.97554 21.67469 68.53875 -28.88215 -0.02489 -0.00044 8.94676 14.26415 -28.88815 -37.73063 15.35342 15.73300 44.82366 30.78428 -46.82940 5.93665 0.01003 0.01733 -2.20240 -68.31892 41.85756 
